<svg version="1.1" xmlns="http://www.w3.org/2000/svg" viewBox="-268.2879974365234 -1195.0080444335938 1869.824072265625 1510.4000610351563"><desc>Created with Snap</desc><defs></defs><g><rect x="-268.2879974365234" y="-1195.0080444335938" width="1869.824072265625" height="1510.4000610351563" fill="#222629" style=""></rect><g><g transform="matrix(1.024,0,0,-1.024,0,0)"><path d="M393 0L38 0L38 859L382 859L382 693L213 693L213 526L375 526L375 364L213 364L213 167L393 167L393 0ZM799 0L450 0L450 859L622 859L622 146L799 146L799 0ZM1047 -8Q953 -8 896 51Q840 110 840 213L840 609Q840 737 891 802Q942 867 1051 867Q1146 867 1204 815Q1262 763 1262 665L1262 517L1091 517L1091 644Q1091 681 1082 695Q1073 709 1051 709Q1028 709 1019 693Q1011 677 1011 646L1011 215Q1011 181 1021 165Q1031 150 1051 150Q1091 150 1091 215L1091 370L1264 370L1264 208Q1264 -8 1047 -8Z" fill="#1b9ce5" style=""></path></g></g></g></svg>